<?xml version="1.0" encoding="UTF-8"?>
<svg version="1.1" xmlns="http://www.w3.org/2000/svg" width="512" height="512">
<path d="M0 0 C1.27985023 -0.01058945 1.27985023 -0.01058945 2.58555603 -0.02139282 C56.04060528 -0.36305557 109.66114629 11.10992563 153.6796875 43.203125 C154.28055176 43.63705566 154.88141602 44.07098633 155.50048828 44.51806641 C174.8831852 58.56245157 192.99529322 74.19012196 207.6796875 93.203125 C208.83984375 94.63785156 208.83984375 94.63785156 210.0234375 96.1015625 C237.34478077 130.42616148 254.2699835 171.94806906 260.6796875 215.203125 C260.79683105 215.95207031 260.91397461 216.70101562 261.03466797 217.47265625 C270.38759423 279.17695429 253.46254523 346.50169936 216.81152344 396.76513672 C212.87999272 402.00284706 208.81159734 407.12282658 204.6796875 412.203125 C203.94492187 413.12351562 203.21015625 414.04390625 202.453125 414.9921875 C192.31488376 427.63149265 180.61522133 439.43920473 167.6796875 449.203125 C167.04756348 449.68458984 166.41543945 450.16605469 165.76416016 450.66210938 C125.39058355 481.24558739 74.50500017 502.12259928 23.32421875 502.40625 C22.46829636 502.41330963 21.61237396 502.42036926 20.73051453 502.42764282 C-15.17640703 502.6565293 -15.17640703 502.6565293 -32.3203125 499.203125 C-33.86380371 498.89713379 -33.86380371 498.89713379 -35.43847656 498.58496094 C-70.53117196 491.44164783 -104.11167959 478.17075077 -133.3203125 457.203125 C-134.34125 456.47609375 -135.3621875 455.7490625 -136.4140625 455 C-147.87314967 446.61677307 -158.37260782 437.32000665 -168.4453125 427.328125 C-169.16807373 426.61462891 -169.89083496 425.90113281 -170.63549805 425.16601562 C-174.38212521 421.39682642 -177.46155431 417.7087765 -180.3203125 413.203125 C-181.83967777 411.37189002 -183.38256705 409.55998255 -184.9453125 407.765625 C-190.70480453 400.98086626 -195.59093421 393.73193928 -200.3203125 386.203125 C-200.93108643 385.23511963 -200.93108643 385.23511963 -201.55419922 384.24755859 C-236.86662104 327.72807345 -248.04938013 258.95463431 -233.57055664 193.96118164 C-225.65484788 160.94258609 -211.49158571 129.53451312 -191.3203125 102.203125 C-190.66361572 101.31101318 -190.66361572 101.31101318 -189.99365234 100.40087891 C-182.77956159 90.70101401 -174.70312211 81.8978531 -166.3203125 73.203125 C-165.49402344 72.33558594 -164.66773438 71.46804687 -163.81640625 70.57421875 C-158.36089308 64.96255494 -152.46307156 60.04361914 -146.3203125 55.203125 C-145.33289063 54.41035156 -144.34546875 53.61757813 -143.328125 52.80078125 C-103.2747643 21.18759257 -51.46254428 0.28635626 0 0 Z " fill="#E5F5FE" transform="translate(244.3203125,4.796875)"/>
<path d="M0 0 C3.63401577 1.71122564 6.12637103 3.79933887 9.0625 6.5625 C12.69031912 9.93761102 16.37159088 13.16002682 20.25 16.25 C26.29316322 21.12267967 31.88934925 26.43022052 37.53515625 31.75 C42.83179376 36.73708449 48.26559236 41.51999403 54 46 C58.57154416 44.75321523 60.95360127 42.23290061 64.125 38.91796875 C66.56882798 36.41813638 69.18649168 34.16503813 71.83203125 31.8828125 C74.24842951 29.7842468 76.62529024 27.645603 79 25.5 C83.29847542 21.62485928 87.62661047 17.79027093 92 14 C92.81404297 13.2884375 92.81404297 13.2884375 93.64453125 12.5625 C95.50937243 10.93325974 97.37931641 9.31002677 99.25 7.6875 C99.85295898 7.15922607 100.45591797 6.63095215 101.07714844 6.08666992 C103.91254146 3.63752606 106.48919425 1.43386869 110 0 C110.81984375 0.83144531 111.6396875 1.66289062 112.484375 2.51953125 C113.57278198 3.61732105 114.66133115 4.71496989 115.75 5.8125 C116.28882813 6.35970703 116.82765625 6.90691406 117.3828125 7.47070312 C120.11740863 10.22197363 122.79683904 12.78422118 126 15 C125.67 17.31 125.34 19.62 125 22 C125.67546875 22.25136719 126.3509375 22.50273437 127.046875 22.76171875 C129.87821426 23.94893376 132.55252375 25.32306917 135.26049805 26.765625 C144.27074068 31.50681047 153.18830672 34.42068305 163 37 C226.70939128 54.00310279 226.70939128 54.00310279 239.23046875 75.0703125 C241.91131661 80.82592872 243.96645951 86.60257936 243 93 C240.34928364 97.18970818 236.91048643 100.3133653 233.25 103.625 C232.33605469 104.5015625 231.42210937 105.378125 230.48046875 106.28125 C187.13293673 147.37300328 127.08300975 175.86816688 66.64453125 176.203125 C65.78860886 176.21018463 64.93268646 176.21724426 64.05082703 176.22451782 C28.14390547 176.4534043 28.14390547 176.4534043 11 173 C9.97100586 172.79600586 8.94201172 172.59201172 7.88183594 172.38183594 C-27.21085946 165.23852283 -60.79136709 151.96762577 -90 131 C-91.0209375 130.27296875 -92.041875 129.5459375 -93.09375 128.796875 C-101.09413582 122.94396117 -108.63421373 116.62306346 -116 110 C-116.75732422 109.33339355 -117.51464844 108.66678711 -118.29492188 107.97998047 C-120.71000804 105.83372689 -123.07638952 103.64287088 -125.4375 101.4375 C-126.20215576 100.76589844 -126.96681152 100.09429687 -127.75463867 99.40234375 C-130.77725385 96.5014142 -132.82067863 94.49761159 -133.33056641 90.23925781 C-132.57640815 79.45461218 -127.54090098 70.37394355 -119.6640625 63.08984375 C-101.33910406 48.71469307 -77.02323562 43.08558261 -54.92407227 37.37207031 C-42.61538981 34.17891077 -30.39443107 30.95006346 -19.703125 23.79296875 C-17 22 -17 22 -15 22 C-15.32871094 21.18273437 -15.65742188 20.36546875 -15.99609375 19.5234375 C-16.00073598 15.33614591 -15.38531136 14.8505297 -12.59765625 11.9140625 C-11.10331971 10.46621643 -9.59071787 9.03703756 -8.0625 7.625 C-7.29486328 6.88894531 -6.52722656 6.15289062 -5.73632812 5.39453125 C-3.83895375 3.57965141 -1.9272444 1.78304177 0 0 Z " fill="#66DAD1" transform="translate(201,331)"/>
<path d="M0 0 C1.03116943 0.12858398 2.06233887 0.25716797 3.12475586 0.38964844 C10.6810299 1.47571276 17.46916718 3.72299791 24.5625 6.5 C25.62791016 6.90347656 26.69332031 7.30695313 27.79101562 7.72265625 C35.53831264 10.69220843 35.53831264 10.69220843 39 13 C39.38818359 15.91625977 39.38818359 15.91625977 39.3984375 19.69140625 C39.40464615 20.71799347 39.40464615 20.71799347 39.41098022 21.76531982 C39.41723192 24.03148109 39.39805442 26.29645784 39.375 28.5625 C39.37101196 29.3403183 39.36702393 30.1181366 39.36291504 30.91952515 C39.20698676 56.98920097 38.83621576 86.60506717 29 111 C29.9075 111.04125 30.815 111.0825 31.75 111.125 C35 112 35 112 37.375 114.1875 C43.13520326 124.54128308 37.62738511 140.03046363 34.70556641 150.57080078 C29.91773993 167.05484005 29.91773993 167.05484005 24 171 C21.84765625 170.6015625 21.84765625 170.6015625 20 170 C19.82984375 170.89460937 19.6596875 171.78921875 19.484375 172.7109375 C17.38802921 183.17036488 15.56500649 191.19432292 8.33203125 199.18359375 C2.59787023 206.24285634 3.38217535 212.88607994 4.12304688 221.55142212 C5.65975244 240.90554556 5.65975244 240.90554556 1.19921875 246.9921875 C-1.62763815 249.86088358 -4.78990509 252.03945898 -8.29101562 254.01220703 C-10.55166525 255.31886251 -12.35658486 256.96220926 -14.25 258.75 C-14.85328125 259.27078125 -15.4565625 259.7915625 -16.078125 260.328125 C-18.41105074 262.35758073 -20.70511245 264.427647 -23 266.5 C-26.61145191 269.75911514 -30.24871293 272.98316515 -33.92578125 276.16796875 C-35.48438732 277.54459068 -37.01970456 278.9476517 -38.54296875 280.36328125 C-39.41566406 281.17152344 -40.28835938 281.97976563 -41.1875 282.8125 C-41.98542969 283.56144531 -42.78335938 284.31039063 -43.60546875 285.08203125 C-46.01011966 287.00810563 -48.09505891 288.02480663 -51 289 C-51.70125 288.35933594 -52.4025 287.71867187 -53.125 287.05859375 C-58.03700534 282.58039323 -62.96412244 278.12653906 -67.984375 273.76953125 C-70.28607764 271.74885044 -72.54764379 269.68687382 -74.8125 267.625 C-78.23229328 264.53363199 -81.71958524 261.57540968 -85.3125 258.6875 C-86.16521484 257.97625977 -87.01792969 257.26501953 -87.89648438 256.53222656 C-90.00581897 254.77950038 -92.16862406 253.14952354 -94.39257812 251.5456543 C-103.1213543 244.88508893 -103.1213543 244.88508893 -104.6121521 239.98995972 C-105.30678963 234.70023948 -104.73381182 229.40656108 -104.1875 224.125 C-102.82963394 210.32243205 -102.82963394 210.32243205 -108.83203125 198.22265625 C-109.73333812 197.13482096 -110.64292578 196.05377833 -111.56176758 194.98071289 C-117.35515992 187.89835311 -118.70028003 178.84151608 -120 170 C-120.91458984 170.29777344 -120.91458984 170.29777344 -121.84765625 170.6015625 C-124 171 -124 171 -126.4375 169.375 C-136.23597104 158.288045 -140.04849811 135.12224086 -139.41796875 120.7734375 C-138.80034305 116.67517353 -138.06596537 114.82391548 -135 112 C-131.8515625 111.36328125 -131.8515625 111.36328125 -129 111 C-129.26409668 110.28166992 -129.52819336 109.56333984 -129.80029297 108.82324219 C-132.43765859 101.34205587 -134.05551395 94.09905745 -135.125 86.25 C-135.28967773 85.07244141 -135.45435547 83.89488281 -135.62402344 82.68164062 C-138.78493418 59.38478953 -139.26297626 36.46557385 -139 13 C-132.54368279 9.66641164 -126.23744199 6.47451382 -119.3125 4.25 C-118.13300781 3.86328125 -116.95351562 3.4765625 -115.73828125 3.078125 C-106.31128859 0.3593685 -96.94612369 -0.79247795 -87.1875 -1.625 C-86.42867523 -1.69003723 -85.66985046 -1.75507446 -84.88803101 -1.82208252 C-56.4763049 -4.19332643 -28.2849501 -3.60778473 0 0 Z " fill="#F3C39D" transform="translate(306,89)"/>
<path d="M0 0 C1.03116943 0.12858398 2.06233887 0.25716797 3.12475586 0.38964844 C10.6810299 1.47571276 17.46916718 3.72299791 24.5625 6.5 C25.62791016 6.90347656 26.69332031 7.30695313 27.79101562 7.72265625 C35.53831264 10.69220843 35.53831264 10.69220843 39 13 C39.38818359 15.91625977 39.38818359 15.91625977 39.3984375 19.69140625 C39.40464615 20.71799347 39.40464615 20.71799347 39.41098022 21.76531982 C39.41723192 24.03148109 39.39805442 26.29645784 39.375 28.5625 C39.37101196 29.3403183 39.36702393 30.1181366 39.36291504 30.91952515 C38.97202438 96.27260136 38.97202438 96.27260136 27 115 C26.01 115.33 25.02 115.66 24 116 C23.8040625 115.04222656 23.608125 114.08445312 23.40625 113.09765625 C21.43009871 104.05972086 18.68899294 95.77478918 14.37081909 87.57582092 C13.18372886 85.32003382 12.03312793 83.07317786 10.98173904 80.75071526 C6.68730246 71.21605795 6.68730246 71.21605795 -1.3136673 65.01774979 C-8.14062543 63.41137005 -15.10372639 63.69323094 -22.0703125 63.84765625 C-24.31991113 63.84381753 -26.56950644 63.83448381 -28.81906128 63.81993103 C-33.51970741 63.80844279 -38.214821 63.85647285 -42.91455078 63.94848633 C-48.92407458 64.06231001 -54.92340689 64.03746943 -60.93330574 63.96935368 C-65.57367243 63.93032401 -70.21167913 63.95959254 -74.85186386 64.00976372 C-77.06606877 64.02657997 -79.28051895 64.02364866 -81.49466324 64.00016975 C-92.71737097 63.46842315 -92.71737097 63.46842315 -102.80052185 67.4008007 C-106.16623293 71.16508838 -108.08268028 75.37107745 -110 80 C-110.79414763 81.38745177 -111.6066818 82.76491279 -112.453125 84.12109375 C-117.93344532 94.23585886 -122.33885044 104.51183935 -124 116 C-127 115 -127 115 -128.46484375 112.3515625 C-133.8431115 99.42068047 -135.40086722 85.81650722 -137 72 C-137.11859375 71.01 -137.2371875 70.02 -137.359375 69 C-139.50756648 50.38234049 -139.20966438 31.70851385 -139 13 C-132.54368279 9.66641164 -126.23744199 6.47451382 -119.3125 4.25 C-118.13300781 3.86328125 -116.95351562 3.4765625 -115.73828125 3.078125 C-106.31128859 0.3593685 -96.94612369 -0.79247795 -87.1875 -1.625 C-86.42867523 -1.69003723 -85.66985046 -1.75507446 -84.88803101 -1.82208252 C-56.4763049 -4.19332643 -28.2849501 -3.60778473 0 0 Z " fill="#99523A" transform="translate(306,89)"/>
<path d="M0 0 C3.63401577 1.71122564 6.12637103 3.79933887 9.0625 6.5625 C12.69031912 9.93761102 16.37159088 13.16002682 20.25 16.25 C26.29316322 21.12267967 31.88934925 26.43022052 37.53515625 31.75 C42.83179376 36.73708449 48.26559236 41.51999403 54 46 C58.57154416 44.75321523 60.95360127 42.23290061 64.125 38.91796875 C66.56882798 36.41813638 69.18649168 34.16503813 71.83203125 31.8828125 C74.24842951 29.7842468 76.62529024 27.645603 79 25.5 C83.29847542 21.62485928 87.62661047 17.79027093 92 14 C92.81404297 13.2884375 92.81404297 13.2884375 93.64453125 12.5625 C95.50937243 10.93325974 97.37931641 9.31002677 99.25 7.6875 C99.85295898 7.15922607 100.45591797 6.63095215 101.07714844 6.08666992 C103.91254146 3.63752606 106.48919425 1.43386869 110 0 C110.81984375 0.83144531 111.6396875 1.66289062 112.484375 2.51953125 C113.57278198 3.61732105 114.66133115 4.71496989 115.75 5.8125 C116.28882813 6.35970703 116.82765625 6.90691406 117.3828125 7.47070312 C120.11740863 10.22197363 122.79683904 12.78422118 126 15 C125.67 17.31 125.34 19.62 125 22 C125.67546875 22.25136719 126.3509375 22.50273437 127.046875 22.76171875 C129.87821426 23.94893376 132.55252375 25.32306917 135.26049805 26.765625 C144.27074068 31.50681047 153.18830672 34.42068305 163 37 C226.70939128 54.00310279 226.70939128 54.00310279 239.23046875 75.0703125 C241.91131661 80.82592872 243.96645951 86.60257936 243 93 C240.34928364 97.18970818 236.91048643 100.3133653 233.25 103.625 C232.33605469 104.5015625 231.42210937 105.378125 230.48046875 106.28125 C187.13293673 147.37300328 127.08300975 175.86816688 66.64453125 176.203125 C65.78860886 176.21018463 64.93268646 176.21724426 64.05082703 176.22451782 C28.14390547 176.4534043 28.14390547 176.4534043 11 173 C9.97100586 172.79600586 8.94201172 172.59201172 7.88183594 172.38183594 C-27.21085946 165.23852283 -60.79136709 151.96762577 -90 131 C-91.0209375 130.27296875 -92.041875 129.5459375 -93.09375 128.796875 C-101.09413582 122.94396117 -108.63421373 116.62306346 -116 110 C-116.75732422 109.33339355 -117.51464844 108.66678711 -118.29492188 107.97998047 C-120.71000804 105.83372689 -123.07638952 103.64287088 -125.4375 101.4375 C-126.20215576 100.76589844 -126.96681152 100.09429687 -127.75463867 99.40234375 C-130.77725385 96.5014142 -132.82067863 94.49761159 -133.33056641 90.23925781 C-132.57640815 79.45461218 -127.54090098 70.37394355 -119.6640625 63.08984375 C-101.33910406 48.71469307 -77.02323562 43.08558261 -54.92407227 37.37207031 C-42.61538981 34.17891077 -30.39443107 30.95006346 -19.703125 23.79296875 C-17 22 -17 22 -15 22 C-15.32871094 21.18273437 -15.65742188 20.36546875 -15.99609375 19.5234375 C-16.00073598 15.33614591 -15.38531136 14.8505297 -12.59765625 11.9140625 C-11.10331971 10.46621643 -9.59071787 9.03703756 -8.0625 7.625 C-7.29486328 6.88894531 -6.52722656 6.15289062 -5.73632812 5.39453125 C-3.83895375 3.57965141 -1.9272444 1.78304177 0 0 Z M123 22 C122.6596875 22.58563721 122.319375 23.17127441 121.96875 23.7746582 C108.86429825 46.31318251 95.69050121 68.81094613 82 91 C79.16943507 88.45806929 77.38438917 85.57792249 75.41796875 82.3359375 C74.73283203 81.21316406 74.04769531 80.09039062 73.34179688 78.93359375 C72.62342101 77.74756351 71.9053236 76.56136457 71.1875 75.375 C64.45041704 63.95060582 64.45041704 63.95060582 57 53 C56.67 53 56.34 53 56 53 C56 92.93 56 132.86 56 174 C73.51860374 174.02236659 73.51860374 174.02236659 90.6875 172.25 C91.93442627 172.06590576 93.18135254 171.88181152 94.46606445 171.69213867 C127.97522286 166.59306109 160.4570789 154.35712719 189 136 C189.65871094 135.57783203 190.31742188 135.15566406 190.99609375 134.72070312 C201.96824403 127.60912424 212.21081408 119.66180868 222 111 C222.86318848 110.24025879 223.72637695 109.48051758 224.61572266 108.69775391 C227.32521894 106.27562106 229.97984972 103.80460469 232.625 101.3125 C233.47360596 100.55324219 234.32221191 99.79398437 235.1965332 99.01171875 C239.59145159 94.79704834 239.59145159 94.79704834 241.36450195 89.15258789 C240.65249689 79.38525495 236.55943647 71.56561773 229.41015625 64.9375 C210.6213243 49.83334984 185.83757388 44.6325037 163.02514648 38.60961914 C148.41996942 34.74342949 136.00740823 29.76953466 123 22 Z M-15 23 C-17.87201155 24.47467424 -17.87201155 24.47467424 -21.0625 26.5625 C-34.28308897 34.48518946 -49.20798669 37.63586786 -64.01904297 41.39257812 C-73.51668249 43.82024392 -82.81527918 46.5704525 -92 50 C-92.94770264 50.35312256 -92.94770264 50.35312256 -93.91455078 50.71337891 C-108.7163237 56.35049368 -122.16772461 64.0795187 -129.0546875 78.765625 C-130.9297376 83.19756159 -132.28890734 87.25502252 -131 92 C-128.2212075 95.88083458 -124.84278423 99.048894 -121.375 102.3125 C-120.40398033 103.25014106 -119.43385099 104.18870499 -118.46459961 105.12817383 C-111.35515806 111.96133423 -103.99702906 118.24376527 -96 124 C-94.85335128 124.85176801 -93.70753275 125.70465463 -92.5625 126.55859375 C-79.51453708 136.19084047 -65.64556232 144.07091675 -51 151 C-50.30036133 151.33386719 -49.60072266 151.66773438 -48.87988281 152.01171875 C-29.60673772 161.13696296 -9.91535995 166.97717004 11 171 C12.21945313 171.23589844 13.43890625 171.47179687 14.6953125 171.71484375 C27.85798026 174.06900234 40.51988459 174 54 174 C54 134.07 54 94.14 54 53 C50.85636235 56.14363765 48.99779053 58.34249741 46.79296875 62.03515625 C46.20580078 63.01033203 45.61863281 63.98550781 45.01367188 64.99023438 C44.1097168 66.51100586 44.1097168 66.51100586 43.1875 68.0625 C41.99463734 70.05407332 40.80062873 72.04496072 39.60546875 74.03515625 C39.01813965 75.01371582 38.43081055 75.99227539 37.82568359 77.00048828 C34.95694549 81.71368919 31.98601652 86.36047042 29 91 C26.02181149 88.37589393 24.2839041 85.30822866 22.3046875 81.890625 C21.95598099 81.29179001 21.60727448 80.69295502 21.2480011 80.07597351 C20.50439527 78.79783226 19.76288099 77.51847226 19.02328491 76.23800659 C17.48174195 73.56915888 15.93020531 70.90617197 14.3792572 68.24278259 C13.61639968 66.93243723 12.85407637 65.62178071 12.09230042 64.31080627 C8.84458955 58.72261096 5.54173921 53.17159718 2.19140625 47.64453125 C0.39759706 44.68043856 -1.35171282 41.69173732 -3.09765625 38.69921875 C-3.63994873 37.7769751 -4.18224121 36.85473145 -4.7409668 35.90454102 C-5.81067508 34.08493415 -6.87361817 32.26132909 -7.92895508 30.43334961 C-8.41388428 29.61229736 -8.89881348 28.79124512 -9.3984375 27.9453125 C-9.82817871 27.20812988 -10.25791992 26.47094727 -10.70068359 25.71142578 C-11.97894432 23.69347417 -11.97894432 23.69347417 -15 23 Z " fill="#66DAD1" transform="translate(201,331)"/>
<path d="M0 0 C3.63401577 1.71122564 6.12637103 3.79933887 9.0625 6.5625 C12.69031912 9.93761102 16.37159088 13.16002682 20.25 16.25 C25.5569304 20.52586964 30.48303203 25.13811161 35.42358398 29.82470703 C40.06875377 34.20554666 44.85991015 38.24064846 49.92578125 42.1328125 C52.08160006 44.07345542 53.0432474 45.28326035 54 48 C53.33178711 49.86499023 53.33178711 49.86499023 52.02734375 51.80859375 C51.54555664 52.5461792 51.06376953 53.28376465 50.56738281 54.04370117 C50.02952148 54.83365479 49.49166016 55.6236084 48.9375 56.4375 C47.82546445 58.12931619 46.71484138 59.82206146 45.60546875 61.515625 C45.01813965 62.40314453 44.43081055 63.29066406 43.82568359 64.20507812 C40.70931129 68.97590323 37.73480953 73.83370147 34.75 78.6875 C33.64085122 80.48321266 32.53149633 82.27879805 31.421875 84.07421875 C30.61445518 85.38273343 29.80711041 86.69129445 29 88 C25.01693933 83.40563025 22.10596302 78.29711008 19.0625 73.0625 C17.8972391 71.07415798 16.73187156 69.08587846 15.56640625 67.09765625 C14.67719482 65.57615967 14.67719482 65.57615967 13.77001953 64.02392578 C11.55833845 60.24545931 9.33177672 56.47594622 7.10180664 52.70825195 C6.03506369 50.90465806 4.97044182 49.09980794 3.90795898 47.29370117 C1.06274063 42.46068598 -1.81592525 37.65163383 -4.7421875 32.8671875 C-5.34998047 31.86429687 -5.95777344 30.86140625 -6.58398438 29.828125 C-7.75488005 27.89748786 -8.93549775 25.97270485 -10.12695312 24.0546875 C-10.64966797 23.1884375 -11.17238281 22.3221875 -11.7109375 21.4296875 C-12.17806152 20.66897949 -12.64518555 19.90827148 -13.12646484 19.12451172 C-14 17 -14 17 -13.8269043 14.92529297 C-12.87090501 12.69942631 -11.79430278 11.4507794 -10.05859375 9.765625 C-9.18364258 8.90517578 -9.18364258 8.90517578 -8.29101562 8.02734375 C-7.67935547 7.44082031 -7.06769531 6.85429687 -6.4375 6.25 C-5.82197266 5.64800781 -5.20644531 5.04601562 -4.57226562 4.42578125 C-3.05485187 2.94365619 -1.52829404 1.4709033 0 0 Z " fill="#66DAD1" transform="translate(201,333)"/>
<path d="M0 0 C3.63401577 1.71122564 6.12637103 3.79933887 9.0625 6.5625 C12.69031912 9.93761102 16.37159088 13.16002682 20.25 16.25 C26.29316322 21.12267967 31.88934925 26.43022052 37.53515625 31.75 C42.83179376 36.73708449 48.26559236 41.51999403 54 46 C58.57154416 44.75321523 60.95360127 42.23290061 64.125 38.91796875 C66.56882798 36.41813638 69.18649168 34.16503813 71.83203125 31.8828125 C74.24842951 29.7842468 76.62529024 27.645603 79 25.5 C83.29847542 21.62485928 87.62661047 17.79027093 92 14 C92.81404297 13.2884375 92.81404297 13.2884375 93.64453125 12.5625 C95.50937243 10.93325974 97.37931641 9.31002677 99.25 7.6875 C99.85295898 7.15922607 100.45591797 6.63095215 101.07714844 6.08666992 C103.91254146 3.63752606 106.48919425 1.43386869 110 0 C110.81984375 0.83144531 111.6396875 1.66289062 112.484375 2.51953125 C113.57278198 3.61732105 114.66133115 4.71496989 115.75 5.8125 C116.28882813 6.35970703 116.82765625 6.90691406 117.3828125 7.47070312 C120.11740863 10.22197363 122.79683904 12.78422118 126 15 C125.67 17.31 125.34 19.62 125 22 C125.67546875 22.25136719 126.3509375 22.50273437 127.046875 22.76171875 C129.87821426 23.94893376 132.55252375 25.32306917 135.26049805 26.765625 C144.27074068 31.50681047 153.18830672 34.42068305 163 37 C226.70939128 54.00310279 226.70939128 54.00310279 239.23046875 75.0703125 C241.91131661 80.82592872 243.96645951 86.60257936 243 93 C240.34928364 97.18970818 236.91048643 100.3133653 233.25 103.625 C232.33605469 104.5015625 231.42210937 105.378125 230.48046875 106.28125 C187.13293673 147.37300328 127.08300975 175.86816688 66.64453125 176.203125 C65.78860886 176.21018463 64.93268646 176.21724426 64.05082703 176.22451782 C28.14390547 176.4534043 28.14390547 176.4534043 11 173 C9.97100586 172.79600586 8.94201172 172.59201172 7.88183594 172.38183594 C-27.21085946 165.23852283 -60.79136709 151.96762577 -90 131 C-91.0209375 130.27296875 -92.041875 129.5459375 -93.09375 128.796875 C-101.09413582 122.94396117 -108.63421373 116.62306346 -116 110 C-116.75732422 109.33339355 -117.51464844 108.66678711 -118.29492188 107.97998047 C-120.71000804 105.83372689 -123.07638952 103.64287088 -125.4375 101.4375 C-126.20215576 100.76589844 -126.96681152 100.09429687 -127.75463867 99.40234375 C-130.77725385 96.5014142 -132.82067863 94.49761159 -133.33056641 90.23925781 C-132.57640815 79.45461218 -127.54090098 70.37394355 -119.6640625 63.08984375 C-101.33910406 48.71469307 -77.02323562 43.08558261 -54.92407227 37.37207031 C-42.61538981 34.17891077 -30.39443107 30.95006346 -19.703125 23.79296875 C-17 22 -17 22 -15 22 C-15.32871094 21.18273437 -15.65742188 20.36546875 -15.99609375 19.5234375 C-16.00073598 15.33614591 -15.38531136 14.8505297 -12.59765625 11.9140625 C-11.10331971 10.46621643 -9.59071787 9.03703756 -8.0625 7.625 C-7.29486328 6.88894531 -6.52722656 6.15289062 -5.73632812 5.39453125 C-3.83895375 3.57965141 -1.9272444 1.78304177 0 0 Z M-7.1875 8.6875 C-7.85458984 9.31333984 -8.52167969 9.93917969 -9.20898438 10.58398438 C-9.83482422 11.19951172 -10.46066406 11.81503906 -11.10546875 12.44921875 C-11.68449951 13.00955811 -12.26353027 13.56989746 -12.86010742 14.1472168 C-14.23778159 15.98525394 -14.23778159 15.98525394 -13.83618164 18.43896484 C-12.97892292 21.06455433 -11.94324516 23.16552402 -10.515625 25.52734375 C-9.7414624 26.82152222 -9.7414624 26.82152222 -8.95166016 28.1418457 C-8.3901123 29.06441162 -7.82856445 29.98697754 -7.25 30.9375 C-6.05446902 32.92955639 -4.85916256 34.92174755 -3.6640625 36.9140625 C-3.05208008 37.92887695 -2.44009766 38.94369141 -1.80957031 39.98925781 C0.94909775 44.57909788 3.65965101 49.19695493 6.375 53.8125 C13.51634743 65.91511154 20.75567191 77.95885405 28 90 C30.74029273 86.67718434 33.15933037 83.30940281 35.42578125 79.6484375 C36.05806641 78.63136719 36.69035156 77.61429687 37.34179688 76.56640625 C37.99212891 75.51324219 38.64246094 74.46007812 39.3125 73.375 C40.59980848 71.29919883 41.88756681 69.22367657 43.17578125 67.1484375 C43.80178223 66.12975586 44.4277832 65.11107422 45.07275391 64.06152344 C46.37872195 61.98693016 47.72652453 59.93819524 49.11083984 57.91503906 C50.09818115 56.46049316 50.09818115 56.46049316 51.10546875 54.9765625 C51.7089917 54.11369629 52.31251465 53.25083008 52.93432617 52.36181641 C54.27775488 50.07286481 54.27775488 50.07286481 53.35595703 47.85107422 C51.2205904 44.93599504 48.46305616 42.77503992 45.6875 40.5 C40.77404153 36.38967246 35.98286776 32.19714285 31.3125 27.8125 C26.62693404 23.429115 21.79385204 19.32258163 16.78125 15.3125 C13.00802385 12.17521084 9.43116108 8.84100967 5.88256836 5.45288086 C-0.19654583 -0.26568603 -2.07828521 3.65866617 -7.1875 8.6875 Z M102.375 7.0625 C101.28188845 8.08271575 100.18813839 9.10224779 99.09375 10.12109375 C98.56136719 10.61851074 98.02898437 11.11592773 97.48046875 11.62841797 C95.64307131 13.33067701 93.7676148 14.98447529 91.875 16.625 C88.88602542 19.21709829 85.93678465 21.84886006 83 24.5 C79.38868258 27.75899377 75.7481153 30.97928181 72.078125 34.171875 C68.78285981 37.07071731 65.54150298 40.02907691 62.296875 42.984375 C60.26187041 44.77019535 58.19099251 46.41203295 56 48 C57.37308191 51.72298719 59.07588192 54.9301526 61.1953125 58.28125 C61.8255835 59.28285156 62.45585449 60.28445313 63.10522461 61.31640625 C63.77175049 62.36699219 64.43827637 63.41757812 65.125 64.5 C66.48339428 66.65604756 67.84146963 68.8122961 69.19921875 70.96875 C69.85325684 72.00515625 70.50729492 73.0415625 71.18115234 74.109375 C73.45648902 77.72548054 75.70495063 81.35736353 77.9375 85 C78.54464844 85.99 79.15179688 86.98 79.77734375 88 C80.18082031 88.66 80.58429688 89.32 81 90 C83.84757797 87.462565 85.54577377 84.60104225 87.44921875 81.3125 C87.7790123 80.74611313 88.10880585 80.17972626 88.44859314 79.59617615 C89.53237108 77.73315617 90.60982549 75.86655596 91.6875 74 C92.82870682 72.03547497 93.97164276 70.07196278 95.11468506 68.10850525 C95.89958486 66.76006114 96.68396211 65.41131275 97.46783447 64.06227112 C101.47888183 57.16276351 105.54760007 50.29793778 109.625 43.4375 C111.48517406 40.30704914 113.34468771 37.17640899 115.19238281 34.03857422 C116.45695853 31.91284362 117.74478775 29.80085269 119.04980469 27.69970703 C119.70110352 26.63478027 120.35240234 25.56985352 121.0234375 24.47265625 C121.61817871 23.5175415 122.21291992 22.56242676 122.82568359 21.57836914 C124.17774291 19.1460581 124.17774291 19.1460581 123.86547852 16.86010742 C122.87690034 14.73543121 121.78998714 13.41730402 120.12890625 11.765625 C119.55462891 11.19199219 118.98035156 10.61835938 118.38867188 10.02734375 C117.4847168 9.14755859 117.4847168 9.14755859 116.5625 8.25 C115.96373047 7.64800781 115.36496094 7.04601562 114.74804688 6.42578125 C109.20537424 0.95138342 107.95939307 1.76633367 102.375 7.0625 Z M123 22 C122.6596875 22.58563721 122.319375 23.17127441 121.96875 23.7746582 C108.86429825 46.31318251 95.69050121 68.81094613 82 91 C79.16943507 88.45806929 77.38438917 85.57792249 75.41796875 82.3359375 C74.73283203 81.21316406 74.04769531 80.09039062 73.34179688 78.93359375 C72.62342101 77.74756351 71.9053236 76.56136457 71.1875 75.375 C64.45041704 63.95060582 64.45041704 63.95060582 57 53 C56.67 53 56.34 53 56 53 C56 92.93 56 132.86 56 174 C73.51860374 174.02236659 73.51860374 174.02236659 90.6875 172.25 C91.93442627 172.06590576 93.18135254 171.88181152 94.46606445 171.69213867 C127.97522286 166.59306109 160.4570789 154.35712719 189 136 C189.65871094 135.57783203 190.31742188 135.15566406 190.99609375 134.72070312 C201.96824403 127.60912424 212.21081408 119.66180868 222 111 C222.86318848 110.24025879 223.72637695 109.48051758 224.61572266 108.69775391 C227.32521894 106.27562106 229.97984972 103.80460469 232.625 101.3125 C233.47360596 100.55324219 234.32221191 99.79398437 235.1965332 99.01171875 C239.59145159 94.79704834 239.59145159 94.79704834 241.36450195 89.15258789 C240.65249689 79.38525495 236.55943647 71.56561773 229.41015625 64.9375 C210.6213243 49.83334984 185.83757388 44.6325037 163.02514648 38.60961914 C148.41996942 34.74342949 136.00740823 29.76953466 123 22 Z M-15 23 C-17.87201155 24.47467424 -17.87201155 24.47467424 -21.0625 26.5625 C-34.28308897 34.48518946 -49.20798669 37.63586786 -64.01904297 41.39257812 C-73.51668249 43.82024392 -82.81527918 46.5704525 -92 50 C-92.94770264 50.35312256 -92.94770264 50.35312256 -93.91455078 50.71337891 C-108.7163237 56.35049368 -122.16772461 64.0795187 -129.0546875 78.765625 C-130.9297376 83.19756159 -132.28890734 87.25502252 -131 92 C-128.2212075 95.88083458 -124.84278423 99.048894 -121.375 102.3125 C-120.40398033 103.25014106 -119.43385099 104.18870499 -118.46459961 105.12817383 C-111.35515806 111.96133423 -103.99702906 118.24376527 -96 124 C-94.85335128 124.85176801 -93.70753275 125.70465463 -92.5625 126.55859375 C-79.51453708 136.19084047 -65.64556232 144.07091675 -51 151 C-50.30036133 151.33386719 -49.60072266 151.66773438 -48.87988281 152.01171875 C-29.60673772 161.13696296 -9.91535995 166.97717004 11 171 C12.21945313 171.23589844 13.43890625 171.47179687 14.6953125 171.71484375 C27.85798026 174.06900234 40.51988459 174 54 174 C54 134.07 54 94.14 54 53 C50.85636235 56.14363765 48.99779053 58.34249741 46.79296875 62.03515625 C46.20580078 63.01033203 45.61863281 63.98550781 45.01367188 64.99023438 C44.1097168 66.51100586 44.1097168 66.51100586 43.1875 68.0625 C41.99463734 70.05407332 40.80062873 72.04496072 39.60546875 74.03515625 C39.01813965 75.01371582 38.43081055 75.99227539 37.82568359 77.00048828 C34.95694549 81.71368919 31.98601652 86.36047042 29 91 C26.02181149 88.37589393 24.2839041 85.30822866 22.3046875 81.890625 C21.95598099 81.29179001 21.60727448 80.69295502 21.2480011 80.07597351 C20.50439527 78.79783226 19.76288099 77.51847226 19.02328491 76.23800659 C17.48174195 73.56915888 15.93020531 70.90617197 14.3792572 68.24278259 C13.61639968 66.93243723 12.85407637 65.62178071 12.09230042 64.31080627 C8.84458955 58.72261096 5.54173921 53.17159718 2.19140625 47.64453125 C0.39759706 44.68043856 -1.35171282 41.69173732 -3.09765625 38.69921875 C-3.63994873 37.7769751 -4.18224121 36.85473145 -4.7409668 35.90454102 C-5.81067508 34.08493415 -6.87361817 32.26132909 -7.92895508 30.43334961 C-8.41388428 29.61229736 -8.89881348 28.79124512 -9.3984375 27.9453125 C-9.82817871 27.20812988 -10.25791992 26.47094727 -10.70068359 25.71142578 C-11.97894432 23.69347417 -11.97894432 23.69347417 -15 23 Z " fill="#6BB6AB" transform="translate(201,331)"/>
<path d="M0 0 C3.15514537 2.91333551 5.24498397 5.81903374 7.35546875 9.55078125 C7.97301025 10.63383545 8.59055176 11.71688965 9.22680664 12.83276367 C9.87383545 13.98107666 10.52086426 15.12938965 11.1875 16.3125 C12.20575681 18.10138408 13.2265382 19.88881127 14.2474823 21.67616272 C15.24211188 23.41781975 16.23484092 25.1605617 17.22753906 26.90332031 C20.7159777 32.9979974 24.34782959 39.0023489 28 45 C29.21876562 47.00519884 30.4375141 49.0104081 31.65625 51.015625 C35.1003724 56.67939831 38.54884089 62.3405121 42 68 C44.7003209 65.44134706 46.7877979 63.00568513 48.6640625 59.796875 C49.14182129 58.98831055 49.61958008 58.17974609 50.11181641 57.34667969 C50.61116699 56.48977539 51.11051758 55.63287109 51.625 54.75 C52.68650622 52.95774437 53.74902223 51.16608646 54.8125 49.375 C55.34359375 48.4778125 55.8746875 47.580625 56.421875 46.65625 C58.79145434 42.66784912 61.19316644 38.70071061 63.625 34.75 C64.03830566 34.06518555 64.45161133 33.38037109 64.87744141 32.67480469 C65.86323122 31.08113188 66.9242274 29.53436889 68 28 C68.66 28 69.32 28 70 28 C71.22998047 29.6262207 71.22998047 29.6262207 72.6171875 31.92578125 C73.13635742 32.77688477 73.65552734 33.62798828 74.19042969 34.50488281 C75.02429199 35.89465332 75.02429199 35.89465332 75.875 37.3125 C77.04347191 39.23095558 78.21276209 41.14891298 79.3828125 43.06640625 C79.9799707 44.04883301 80.57712891 45.03125977 81.19238281 46.04345703 C84.00226502 50.63930705 86.87172936 55.19677119 89.75 59.75 C90.26288574 60.56509033 90.77577148 61.38018066 91.30419922 62.2199707 C91.77615723 62.96722412 92.24811523 63.71447754 92.734375 64.484375 C93.14913086 65.14147461 93.56388672 65.79857422 93.99121094 66.47558594 C94.91464604 67.98113161 94.91464604 67.98113161 96 69 C96.54527344 68.01902344 97.09054687 67.03804688 97.65234375 66.02734375 C101.70413502 58.76466472 105.81585851 51.55242728 110.12182617 44.43701172 C112.75430699 40.08370266 115.3592687 35.7146716 117.94921875 31.3359375 C118.47679527 30.44413536 118.47679527 30.44413536 119.01502991 29.53431702 C120.44385453 27.11843261 121.87230998 24.70233285 123.29910278 22.2852478 C127.12363694 15.80677475 130.97552489 9.35648685 135 3 C135.99 3.495 135.99 3.495 137 4 C133.33040133 10.21485824 129.65851117 16.42835902 125.98535156 22.64111328 C124.65348709 24.89440785 123.32211282 27.14799222 121.99121094 29.40185547 C117.96165582 36.22535176 113.92163711 43.04242918 109.86865234 49.85205078 C108.11811222 52.80102706 106.38045397 55.75724909 104.64453125 58.71484375 C103.65951644 60.37278948 102.67388681 62.03037017 101.6875 63.6875 C101.24970215 64.44192383 100.8119043 65.19634766 100.36083984 65.97363281 C99.32309021 67.70142179 98.17228752 69.36051196 97 71 C96.01 71 95.02 71 94 71 C92.40942383 69.00317383 92.40942383 69.00317383 90.70703125 66.20703125 C90.07603516 65.18287109 89.44503906 64.15871094 88.79492188 63.10351562 C88.14072266 62.01748047 87.48652344 60.93144531 86.8125 59.8125 C86.17763672 58.77673828 85.54277344 57.74097656 84.88867188 56.67382812 C82.91718651 53.45446628 80.95871721 50.22714613 79 47 C76.36 42.71 73.72 38.42 71 34 C70.67 73.6 70.34 113.2 70 154 C76.93 154 83.86 154 91 154 C90.67 154.66 90.34 155.32 90 156 C84.18336204 156.04972466 78.36684996 156.08587252 72.55004883 156.10986328 C70.57444094 156.1198729 68.59884769 156.13348469 66.62329102 156.15087891 C63.77095918 156.17535009 60.91882453 156.18653376 58.06640625 156.1953125 C57.19415909 156.20563507 56.32191193 156.21595764 55.42323303 156.22659302 C49.66058495 156.22762911 44.58718125 155.42577959 39 154 C39 153.67 39 153.34 39 153 C48.57 153.33 58.14 153.66 68 154 C67.67 114.4 67.34 74.8 67 34 C61.72 42.58 56.44 51.16 51 60 C47.535 65.445 47.535 65.445 44 71 C43.01 71 42.02 71 41 71 C39.81176758 69.5925293 39.81176758 69.5925293 38.64453125 67.57421875 C38.19537354 66.81125488 37.74621582 66.04829102 37.28344727 65.26220703 C36.79803467 64.41255371 36.31262207 63.56290039 35.8125 62.6875 C34.73440473 60.84503469 33.65627807 59.00258774 32.578125 57.16015625 C32.00126953 56.16516113 31.42441406 55.17016602 30.83007812 54.14501953 C28.28001421 49.76269251 25.68751306 45.40601566 23.09643555 41.04785156 C21.06071901 37.62200283 19.03162632 34.1923055 17.00390625 30.76171875 C14.37714386 26.32000958 11.73887518 21.88549306 9.08984375 17.45703125 C8.48325928 16.4397998 7.8766748 15.42256836 7.25170898 14.37451172 C6.10752719 12.45611354 4.96004468 10.5396791 3.80883789 8.62548828 C3.30473389 7.77841309 2.80062988 6.93133789 2.28125 6.05859375 C1.83845703 5.31923584 1.39566406 4.57987793 0.93945312 3.81811523 C0 2 0 2 0 0 Z " fill="#5BBAB0" transform="translate(187,351)"/>
<path d="M0 0 C3.05183062 0.30865105 5.22100068 0.19625343 8.1875 -0.40234375 C13.87596457 -1.29082774 18.55806046 1.72860665 23.4375 4.34765625 C24.0975 4.67765625 24.7575 5.00765625 25.4375 5.34765625 C25.4375 6.00765625 25.4375 6.66765625 25.4375 7.34765625 C23.19085738 8.6662072 20.94052694 9.97759597 18.6875 11.28515625 C18.05328125 11.65833984 17.4190625 12.03152344 16.765625 12.41601562 C8.99753497 16.90694267 0.28895868 18.07747108 -8.5625 16.34765625 C-14.31735184 14.13668401 -19.46154465 10.76638164 -24.5625 7.34765625 C-24.5625 6.68765625 -24.5625 6.02765625 -24.5625 5.34765625 C-15.7677064 0.23095508 -10.15039443 -1.23759932 0 0 Z " fill="#EA8063" transform="translate(255.5625,276.65234375)"/>
<path d="M0 0 C3.05183062 0.30865105 5.22100068 0.19625343 8.1875 -0.40234375 C13.87596457 -1.29082774 18.55806046 1.72860665 23.4375 4.34765625 C24.0975 4.67765625 24.7575 5.00765625 25.4375 5.34765625 C25.4375 6.00765625 25.4375 6.66765625 25.4375 7.34765625 C23.19085738 8.6662072 20.94052694 9.97759597 18.6875 11.28515625 C18.05328125 11.65833984 17.4190625 12.03152344 16.765625 12.41601562 C8.99753497 16.90694267 0.28895868 18.07747108 -8.5625 16.34765625 C-14.31735184 14.13668401 -19.46154465 10.76638164 -24.5625 7.34765625 C-24.5625 6.68765625 -24.5625 6.02765625 -24.5625 5.34765625 C-15.7677064 0.23095508 -10.15039443 -1.23759932 0 0 Z M-21.5625 5.34765625 C-21.5625 5.67765625 -21.5625 6.00765625 -21.5625 6.34765625 C-20.41652344 6.40824219 -19.27054688 6.46882813 -18.08984375 6.53125 C-16.55988703 6.61572614 -15.02993959 6.70037052 -13.5 6.78515625 C-12.74783203 6.82447266 -11.99566406 6.86378906 -11.22070312 6.90429688 C-6.61551259 7.16346344 -2.11883276 7.62759835 2.4375 8.34765625 C0.90029297 8.22197266 0.90029297 8.22197266 -0.66796875 8.09375 C-2.02861879 7.99052827 -3.38929746 7.8876836 -4.75 7.78515625 C-5.42353516 7.72908203 -6.09707031 7.67300781 -6.79101562 7.61523438 C-10.579631 7.33801862 -13.88077794 7.38254464 -17.5625 8.34765625 C-14.54437135 11.58136552 -12.00404407 13.98086935 -7.52294922 14.65405273 C-5.15988306 14.72497148 -2.80174248 14.77783449 -0.4375 14.78515625 C0.83540894 14.79095703 0.83540894 14.79095703 2.1340332 14.796875 C8.82843453 14.67379494 13.92473115 13.31571609 19.4375 9.34765625 C19.4375 9.01765625 19.4375 8.68765625 19.4375 8.34765625 C17.4575 8.01765625 15.4775 7.68765625 13.4375 7.34765625 C17.8925 6.85265625 17.8925 6.85265625 22.4375 6.34765625 C17.21001252 1.92439761 12.17080286 0.99938196 5.4375 1.34765625 C3.46865435 1.63345643 1.49981694 1.91931762 -0.46875 2.20703125 C-2.75427084 2.36053638 -4.68537537 2.05665707 -6.9375 1.66015625 C-12.4349444 0.87343646 -16.69075475 2.9778929 -21.5625 5.34765625 Z " fill="#D37056" transform="translate(255.5625,276.65234375)"/>
<path d="M0 0 C3.32014859 1.64335412 6.15345818 3.63842457 9 6 C8.67 6.66 8.34 7.32 8 8 C6.02 6.68 4.04 5.36 2 4 C1.855625 4.928125 1.71125 5.85625 1.5625 6.8125 C1 10 1 10 0 13 C-4.07547857 14.72424093 -9.02484835 14.76609742 -13.125 13.17578125 C-16.24509337 11.63294096 -19.10080312 9.93279792 -22 8 C-22 7.34 -22 6.68 -22 6 C-18.40608886 7.33488128 -15.24509304 8.96022723 -12 11 C-12.33 10.34 -12.66 9.68 -13 9 C-13.039992 7.00039988 -13.04346799 4.99952758 -13 3 C-14.98 3.66 -16.96 4.32 -19 5 C-14.12042814 -0.65003058 -7.00326391 -1.14339003 0 0 Z " fill="#A47A4E" transform="translate(227,204)"/>
<path d="M0 0 C2.00390625 1.2890625 2.00390625 1.2890625 3.00390625 3.2890625 C1.82957031 3.23105469 0.65523438 3.17304688 -0.5546875 3.11328125 C-10.97449281 2.76471992 -19.60094444 3.79101211 -29.45703125 7.1953125 C-32.58024821 8.16054511 -34.77314187 8.53793909 -37.99609375 8.2890625 C-37.99609375 6.9690625 -37.99609375 5.6490625 -37.99609375 4.2890625 C-25.57830192 -2.66490093 -13.04619658 -6.81190722 0 0 Z " fill="#372F2C" transform="translate(312.99609375,191.7109375)"/>
<path d="M0 0 C1.09344727 0.32000977 1.09344727 0.32000977 2.20898438 0.64648438 C6.52876583 1.94902874 10.44835575 3.53852972 14.4375 5.6875 C14.4375 7.0075 14.4375 8.3275 14.4375 9.6875 C9.0598998 9.32291694 4.63401948 8.46269528 -0.4375 6.625 C-9.02487906 3.7965767 -17.63958338 4.34829726 -26.5625 4.6875 C-18.60812919 -3.70011541 -10.28164239 -3.18959395 0 0 Z " fill="#362E2B" transform="translate(222.5625,190.3125)"/>
<path d="M0 0 C0.495 1.485 0.495 1.485 1 3 C-14.23369425 18.97479288 -27.90327495 30.64910959 -51 31.25 C-61.01138195 30.97371186 -70.51329701 29.65780199 -79 24 C-79.33 23.34 -79.66 22.68 -80 22 C-77.18027319 22.91450599 -74.38999145 23.83721955 -71.65332031 24.97949219 C-64.64511923 27.81546545 -58.58911722 28.63997396 -51.0625 28.5 C-49.48045776 28.47969727 -49.48045776 28.47969727 -47.86645508 28.45898438 C-32.25402989 28.04345832 -21.77712378 22.12477293 -11 11 C-10.34 11 -9.68 11 -9 11 C-8.74476563 10.41734375 -8.48953125 9.8346875 -8.2265625 9.234375 C-6.88258913 6.78611777 -5.38189704 5.18256752 -3.375 3.25 C-2.42753906 2.32960938 -2.42753906 2.32960938 -1.4609375 1.390625 C-0.97882813 0.93171875 -0.49671875 0.4728125 0 0 Z " fill="#DEB292" transform="translate(307,295)"/>
<path d="M0 0 C2.64 0 5.28 0 8 0 C8.35190616 7.03812317 8.35190616 7.03812317 7.0625 10.5625 C4.04052271 12.6687266 1.64797979 12.18696739 -1.8984375 11.609375 C-4 11 -4 11 -6.125 9.25 C-7.23600248 6.39313648 -7.00806489 4.86910776 -6 2 C-5.34 1.67 -4.68 1.34 -4 1 C-3.67 2.32 -3.34 3.64 -3 5 C-2.34 5 -1.68 5 -1 5 C-0.67 3.35 -0.34 1.7 0 0 Z " fill="#A3774B" transform="translate(290,205)"/>
<path d="M0 0 C2.31 0.66 4.62 1.32 7 2 C6.67 2.66 6.34 3.32 6 4 C4.68 3.67 3.36 3.34 2 3 C1.82984375 3.89460938 1.6596875 4.78921875 1.484375 5.7109375 C-0.65603796 16.39023194 -2.85656805 24.4778264 -9.6875 33.0625 C-13.77188504 38.23828628 -15.10938071 41.43715715 -15 48 C-15.33 48 -15.66 48 -16 48 C-16.84467843 43.92677291 -17.12534957 40.05342436 -15.06689453 36.29736328 C-13.82934162 34.46163436 -12.53405525 32.69480441 -11.1875 30.9375 C-4.4328888 22.10780449 -2.78100956 14.9388153 -1.4296875 3.84375 C-1 1 -1 1 0 0 Z " fill="#DFBAA1" transform="translate(324,256)"/>
<path d="M0 0 C-4.91991463 2.50681365 -9.96999658 4.72452226 -15 7 C-15.33 13.27 -15.66 19.54 -16 26 C-16.66 25.67 -17.32 25.34 -18 25 C-18 18.73 -18 12.46 -18 6 C-3.69230769 -1.23076923 -3.69230769 -1.23076923 0 0 Z " fill="#814837" transform="translate(185,96)"/>
<path d="M0 0 C3.32014859 1.64335412 6.15345818 3.63842457 9 6 C8.67 6.66 8.34 7.32 8 8 C7.50371094 7.65066406 7.00742188 7.30132812 6.49609375 6.94140625 C1.89415395 3.85889249 -1.46239061 2.34610059 -7 2 C-7 3.32 -7 4.64 -7 6 C-10.875 5.125 -10.875 5.125 -12 4 C-14.33944736 4.28730055 -16.6739143 4.61936779 -19 5 C-14.12042814 -0.65003058 -7.00326391 -1.14339003 0 0 Z " fill="#BA9B80" transform="translate(227,204)"/>
<path d="M0 0 C0.99 0.33 1.98 0.66 3 1 C3 1.66 3 2.32 3 3 C1.35546875 4.25390625 1.35546875 4.25390625 -0.8125 5.5625 C-1.87404297 6.21412109 -1.87404297 6.21412109 -2.95703125 6.87890625 C-11.46883939 11.549822 -21.16975038 8.08354205 -30 6 C-29.67 5.34 -29.34 4.68 -29 4 C-27.41590006 4.11487748 -25.83271037 4.24234508 -24.25 4.375 C-22.92742187 4.47941406 -22.92742187 4.47941406 -21.578125 4.5859375 C-19 5 -19 5 -16.953125 6.05078125 C-13.42489756 7.76549979 -9.71637864 6.8623641 -6 6 C-3.61971709 4.57324827 -3.61971709 4.57324827 -2 3 C-1.34 3 -0.68 3 0 3 C0 2.01 0 1.02 0 0 Z " fill="#BB9A81" transform="translate(304,209)"/>
<path d="M0 0 C0 0.33 0 0.66 0 1 C-1.98 1.33 -3.96 1.66 -6 2 C-6.33 3.65 -6.66 5.3 -7 7 C-7.99 6.67 -8.98 6.34 -10 6 C-10.33 5.01 -10.66 4.02 -11 3 C-12.98 4.32 -14.96 5.64 -17 7 C-17.66 6.67 -18.32 6.34 -19 6 C-12.93276008 0.15876042 -8.29923622 -0.82382124 0 0 Z " fill="#BA9C83" transform="translate(296,204)"/>
<path d="M0 0 C3.59678466 1.51228446 5.81419979 3.63672547 8.5 6.4375 C11.19579727 9.23946737 13.82172857 11.75353997 17 14 C16.67 15.98 16.34 17.96 16 20 C14 18 14 18 13.55883789 16.07495117 C12.88232652 13.56308128 11.92373925 12.58959369 10.05859375 10.80078125 C9.47529297 10.23166016 8.89199219 9.66253906 8.29101562 9.07617188 C7.67935547 8.49416016 7.06769531 7.91214844 6.4375 7.3125 C4.2730343 5.22509381 2.12947977 3.12355632 0 1 C0 0.67 0 0.34 0 0 Z " fill="#61BCB4" transform="translate(310,332)"/>
<path d="M0 0 C1.98 0.66 3.96 1.32 6 2 C6 2.99 6 3.98 6 5 C3 7.1875 3 7.1875 0 9 C-0.66 8.67 -1.32 8.34 -2 8 C-1.34 5.36 -0.68 2.72 0 0 Z " fill="#F8F6F3" transform="translate(298,207)"/>
<path d="M0 0 C0.66 2.97 1.32 5.94 2 9 C-0.9719385 7.87548273 -3.33440687 6.77706209 -6 5 C-6 4.01 -6 3.02 -6 2 C-2.25 0 -2.25 0 0 0 Z " fill="#F9F6F3" transform="translate(214,207)"/>
<path d="M0 0 C4.32299739 3.8255566 4.80335358 8.87621869 5.3125 14.375 C5.209375 15.24125 5.10625 16.1075 5 17 C4.01 17.66 3.02 18.32 2 19 C2.04125 17.906875 2.0825 16.81375 2.125 15.6875 C2.14420838 10.33796618 1.07503069 5.22157765 0 0 Z " fill="#71B9AF" transform="translate(439,407)"/>
<path d="M0 0 C1.11375 0.598125 2.2275 1.19625 3.375 1.8125 C4.00148437 2.14894531 4.62796875 2.48539063 5.2734375 2.83203125 C7 4 7 4 9 7 C4.545 7.495 4.545 7.495 0 8 C0 5.36 0 2.72 0 0 Z " fill="#F7F1EE" transform="translate(228,207)"/>
<path d="M0 0 C2.09782787 2.09782787 2.6509396 3.3799207 3.625 6.125 C4.01558594 7.21167969 4.01558594 7.21167969 4.4140625 8.3203125 C4.70410156 9.15175781 4.70410156 9.15175781 5 10 C5.66 9.67 6.32 9.34 7 9 C7 10.98 7 12.96 7 15 C4 14 4 14 2.83203125 11.85546875 C2.49558594 10.97503906 2.15914062 10.09460938 1.8125 9.1875 C1.46832031 8.31480469 1.12414062 7.44210938 0.76953125 6.54296875 C0 4 0 4 0 0 Z " fill="#804939" transform="translate(175,190)"/>
<path d="M0 0 C1.35439668 2.70879335 1.06501451 5.00933268 1 8 C-1.97 7.505 -1.97 7.505 -5 7 C-4.60196439 4.11424181 -4.20990931 3.17810487 -1.9375 1.25 C-1.298125 0.8375 -0.65875 0.425 0 0 Z " fill="#FAF9F7" transform="translate(283,207)"/>
<path d="M0 0 C1.07926435 4.3170574 0.85679298 5.24619984 -0.75 9.1875 C-1.26820313 10.50814453 -1.26820313 10.50814453 -1.796875 11.85546875 C-3 14 -3 14 -6 15 C-6 13.02 -6 11.04 -6 9 C-5.34 9.66 -4.68 10.32 -4 11 C-2.68 7.37 -1.36 3.74 0 0 Z " fill="#7F4939" transform="translate(336,190)"/>
<path d="M0 0 C2.57055863 0.92825728 4.66127936 1.70966802 6.75 3.5 C10.18315594 5.78877062 13.98328513 6.27046845 18 7 C18 7.33 18 7.66 18 8 C10.65669115 8.6119424 6.01355723 6.00903816 0 2 C0 1.34 0 0.68 0 0 Z " fill="#B8977E" transform="translate(205,210)"/>
<path d="M0 0 C1.32 0.33 2.64 0.66 4 1 C4 2.65 4 4.3 4 6 C2.35 6 0.7 6 -1 6 C-1.33 5.34 -1.66 4.68 -2 4 C-1.34 4 -0.68 4 0 4 C0 2.68 0 1.36 0 0 Z " fill="#47423C" transform="translate(220,207)"/>
<path d="M0 0 C1.32 0.33 2.64 0.66 4 1 C3.67 2.32 3.34 3.64 3 5 C1.35 5 -0.3 5 -2 5 C-1.34 3.35 -0.68 1.7 0 0 Z " fill="#413E3B" transform="translate(290,208)"/>
<path d="M0 0 C-1.15173355 2.46800047 -2.04783565 4.04783565 -4 6 C-6.125 5.625 -6.125 5.625 -8 5 C-2.25 0 -2.25 0 0 0 Z " fill="#6BB9AE" transform="translate(415,449)"/>
<path d="M0 0 C3.36591866 1.44253657 5.51047079 3.33264727 8 6 C5.6875 5.8125 5.6875 5.8125 3 5 C1.1875 2.4375 1.1875 2.4375 0 0 Z " fill="#6AB9AF" transform="translate(97,449)"/>
</svg>
