<svg width="16" height="20" viewBox="0 0 16 20" fill="none" xmlns="http://www.w3.org/2000/svg">
<path d="M7 17H9V16H10C10.2833 16 10.5208 15.9042 10.7125 15.7125C10.9042 15.5208 11 15.2833 11 15V12C11 11.7167 10.9042 11.4792 10.7125 11.2875C10.5208 11.0958 10.2833 11 10 11H7V10H11V8H9V7H7V8H6C5.71667 8 5.47917 8.09583 5.2875 8.2875C5.09583 8.47917 5 8.71667 5 9V12C5 12.2833 5.09583 12.5208 5.2875 12.7125C5.47917 12.9042 5.71667 13 6 13H9V14H5V16H7V17ZM2 20C1.45 20 0.979167 19.8042 0.5875 19.4125C0.195833 19.0208 0 18.55 0 18V2C0 1.45 0.195833 0.979167 0.5875 0.5875C0.979167 0.195833 1.45 0 2 0H10L16 6V18C16 18.55 15.8042 19.0208 15.4125 19.4125C15.0208 19.8042 14.55 20 14 20H2ZM9 6V2H2V18H14V6H9Z" fill="url(#paint0_linear_1_3)"/>
<defs>
<linearGradient id="paint0_linear_1_3" x1="8" y1="0" x2="8" y2="20" gradientUnits="userSpaceOnUse">
<stop stop-color="#04364A"/>
<stop offset="1" stop-color="#0FAE75"/>
</linearGradient>
</defs>
</svg>
